<?xml version="1.0" encoding="UTF-8" standalone="no"?>
<!-- Created with Inkscape (http://www.inkscape.org/) -->

<svg
   width="111.65973"
   height="63.782204"
   viewBox="0 0 111.65973 63.782203"
   version="1.1"
   id="svg5"
   inkscape:version="1.1.1 (3bf5ae0d25, 2021-09-20)"
   sodipodi:docname="dak.svg"
   xmlns:inkscape="http://www.inkscape.org/namespaces/inkscape"
   xmlns:sodipodi="http://sodipodi.sourceforge.net/DTD/sodipodi-0.dtd"
   xmlns="http://www.w3.org/2000/svg"
   xmlns:svg="http://www.w3.org/2000/svg">
  <sodipodi:namedview
     id="namedview7"
     pagecolor="#ffffff"
     bordercolor="#666666"
     borderopacity="1.0"
     inkscape:pageshadow="2"
     inkscape:pageopacity="0.0"
     inkscape:pagecheckerboard="0"
     inkscape:document-units="px"
     showgrid="false"
     inkscape:zoom="0.88518518"
     inkscape:cx="165.50209"
     inkscape:cy="34.456067"
     inkscape:window-width="1366"
     inkscape:window-height="706"
     inkscape:window-x="-8"
     inkscape:window-y="-8"
     inkscape:window-maximized="1"
     inkscape:current-layer="layer1"
     inkscape:snap-global="false"
     inkscape:snap-object-midpoints="true"
     inkscape:snap-nodes="false"
     inkscape:snap-center="true"
     inkscape:snap-others="false"
     inkscape:snap-bbox="true"
     inkscape:snap-bbox-edge-midpoints="true"
     fit-margin-top="0"
     fit-margin-left="0"
     fit-margin-right="0"
     fit-margin-bottom="0" />
  <defs
     id="defs2" />
  <g
     inkscape:label="Capa 1"
     inkscape:groupmode="layer"
     id="layer1"
     transform="translate(-315.04976,-255.07454)">
    <rect
       style="fill:#ffffff;fill-opacity:1;stroke:none;stroke-width:7.06312;stroke-linecap:round;stroke-linejoin:round;stroke-miterlimit:4;stroke-dasharray:none"
       id="rect209521"
       width="508.93546"
       height="224.24846"
       x="1381.3658"
       y="491.9057"
       transform="matrix(1,0,-0.87656808,0.48127788,0,0)" />
    <rect
       style="fill:#ffffff;fill-opacity:1;stroke:#ffffff;stroke-width:4.89999;stroke-linecap:round;stroke-linejoin:round;stroke-miterlimit:4;stroke-dasharray:none"
       id="rect201029"
       width="106.75974"
       height="58.882214"
       x="317.49976"
       y="257.52454" />
    <path
       id="rect200828"
       style="fill:#ffffff;fill-opacity:1;stroke:#ffffff;stroke-width:2;stroke-linecap:round;stroke-linejoin:round;stroke-miterlimit:4;stroke-dasharray:none"
       d="m 26.361328,0 -26.361328,14.126953 v 2 5.332031 6.451172 l 26.361328,-14.126953 v -6.4492186 -5.3339844 z m -12.621094,23.341797 -10.9941402,5.890625 23.6152342,12.65625 v -11.783203 z m -12.3671871,21.591797 h 93.4609371 z m 4.2382812,3.375 c -1.1201649,0 -2.0013596,0.318061 -2.6445312,0.955078 -0.6400943,0.633939 -0.9609375,1.500986 -0.9609375,2.599609 0,0.600089 0.087433,1.122969 0.2597656,1.572266 0.1723331,0.446219 0.4154521,0.818682 0.7324219,1.117187 0.3138923,0.295428 0.6944054,0.518302 1.140625,0.666016 0.4462195,0.147714 0.9371928,0.220703 1.4726562,0.220703 0.4154458,0 0.8459204,-0.06328 1.2890625,-0.189453 0.4462196,-0.12925 0.856982,-0.278839 1.2324219,-0.451172 v -2.951172 h -2.7480469 v 0.804688 h 1.8417969 v 1.683594 c -0.2215711,0.09232 -0.4799625,0.168092 -0.7753906,0.226562 -0.2923508,0.05847 -0.5854313,0.08789 -0.8808594,0.08789 -0.8062725,0 -1.4443482,-0.245901 -1.9121094,-0.738282 -0.4677611,-0.495457 -0.7011719,-1.188763 -0.7011719,-2.078125 0,-0.843201 0.2237024,-1.509573 0.6699219,-2.001953 0.4492969,-0.495457 1.058781,-0.74414 1.828125,-0.74414 0.3415888,0 0.6463308,0.03303 0.9140625,0.09766 0.2708091,0.06155 0.5122704,0.138976 0.7246094,0.234375 0.1754104,0.08001 0.3535911,0.180763 0.5351562,0.300781 0.1815652,0.120018 0.320617,0.217159 0.4160157,0.291016 h 0.082031 v -1.085938 c -0.4708385,-0.224648 -0.9110215,-0.382288 -1.3203125,-0.474609 -0.4062136,-0.0954 -0.8044857,-0.142578 -1.1953125,-0.142578 z m 45.6347659,0.125 v 6.873047 h 0.914062 v -2.332032 l 0.683594,-0.728515 2.71875,3.060547 h 1.1875 l -3.212891,-3.642579 3.06836,-3.230468 h -1.107422 l -3.337891,3.585937 v -3.585937 z m -17.091797,1.572265 c -0.326202,0 -0.634555,0.06689 -0.923828,0.199219 -0.286196,0.12925 -0.544588,0.2905 -0.775391,0.484375 v -0.539062 h -0.86914 v 7.05664 h 0.86914 v -2.160156 c 0.224649,0.123095 0.44474,0.214967 0.660156,0.273437 0.218494,0.05847 0.460784,0.08789 0.728516,0.08789 0.307738,0 0.59916,-0.06245 0.873047,-0.185547 0.276964,-0.126172 0.517596,-0.303524 0.720703,-0.53125 0.218494,-0.240035 0.387795,-0.532287 0.507812,-0.876953 0.120018,-0.347743 0.179688,-0.729914 0.179688,-1.148437 0,-0.833969 -0.173741,-1.485364 -0.521484,-1.953125 -0.344666,-0.470839 -0.827589,-0.707032 -1.449219,-0.707031 z m 9.310547,0 c -0.729338,0 -1.309402,0.245073 -1.740235,0.734375 -0.427755,0.486226 -0.642578,1.150111 -0.642578,1.990235 0,0.840123 0.214823,1.504009 0.642578,1.990234 0.430833,0.486226 1.010897,0.728516 1.740235,0.728516 0.723183,0 1.299636,-0.24229 1.730468,-0.728516 0.430833,-0.486225 0.646485,-1.150111 0.646485,-1.990234 0,-0.840124 -0.215652,-1.504009 -0.646485,-1.990235 -0.430832,-0.489302 -1.007285,-0.734375 -1.730468,-0.734375 z m 20.029297,0 c -0.75088,0 -1.356753,0.248683 -1.81836,0.744141 -0.458529,0.495458 -0.689453,1.164611 -0.689453,2.007812 0,0.852434 0.240633,1.511879 0.720703,1.976563 0.480071,0.461606 1.148396,0.691406 2.003907,0.691406 0.335433,0 0.654324,-0.04191 0.958984,-0.125 0.30466,-0.08309 0.604134,-0.185498 0.896484,-0.308593 v -0.947266 h -0.04687 c -0.150791,0.135404 -0.404743,0.274456 -0.761719,0.416016 -0.353898,0.138481 -0.705819,0.208984 -1.05664,0.208984 -0.264654,0 -0.506945,-0.03747 -0.728516,-0.111328 -0.218493,-0.07386 -0.408336,-0.184317 -0.568359,-0.332032 -0.166178,-0.150791 -0.29718,-0.344244 -0.392578,-0.578124 -0.0954,-0.236958 -0.142578,-0.513109 -0.142578,-0.830079 h 3.798828 v -0.470703 c 0,-0.747802 -0.189842,-1.326208 -0.56836,-1.732422 -0.37544,-0.406213 -0.909981,-0.609375 -1.605468,-0.609375 z m 10.058593,0 c -0.30466,0 -0.601351,0.06328 -0.890625,0.189453 -0.289273,0.126173 -0.570987,0.302696 -0.841797,0.527344 v -0.572265 h -0.867187 v 5.15625 h 0.867187 v -3.84961 c 0.236958,-0.181565 0.485642,-0.332278 0.744141,-0.449219 0.2585,-0.11694 0.50523,-0.173828 0.742188,-0.173828 0.230803,0 0.419816,0.03108 0.564453,0.0957 0.144636,0.06155 0.255097,0.157859 0.332031,0.287109 0.07386,0.11694 0.124647,0.27902 0.152344,0.488281 0.0277,0.206184 0.04102,0.429058 0.04102,0.666016 v 2.935547 h 0.869141 v -3.347657 c 0,-0.630862 -0.147102,-1.113784 -0.439453,-1.449218 -0.292351,-0.335434 -0.716433,-0.503907 -1.273438,-0.503907 z m 18.404297,0.01953 c -0.310815,0 -0.627218,0.02664 -0.947265,0.08203 -0.320047,0.05539 -0.563167,0.106183 -0.732422,0.152344 v 0.882812 h 0.04492 c 0.298505,-0.113863 0.589099,-0.199342 0.86914,-0.257812 0.280041,-0.06155 0.533993,-0.09375 0.761719,-0.09375 0.18772,0 0.366729,0.01249 0.539063,0.03711 0.172333,0.02462 0.320264,0.0718 0.443359,0.142578 0.12925,0.07386 0.227219,0.175438 0.294922,0.304688 0.07078,0.129249 0.107422,0.293282 0.107422,0.490234 v 0.132813 c -0.50469,0.02462 -0.977904,0.06209 -1.417969,0.111328 -0.440065,0.04924 -0.816967,0.142768 -1.13086,0.28125 -0.310814,0.138482 -0.551447,0.329153 -0.720703,0.572265 -0.166178,0.240036 -0.248046,0.556439 -0.248047,0.947266 10e-7,0.476993 0.161251,0.869997 0.484376,1.177734 0.323124,0.307738 0.716956,0.460938 1.18164,0.460938 0.252345,0 0.472436,-0.02498 0.660156,-0.07422 0.18772,-0.04616 0.353411,-0.105002 0.498047,-0.175781 0.123095,-0.05539 0.249657,-0.128382 0.378907,-0.220703 0.132327,-0.0954 0.237518,-0.170341 0.314453,-0.222657 v 0.550782 h 0.863281 v -3.5 c 0,-0.332357 -0.05079,-0.611289 -0.152344,-0.835938 -0.101553,-0.224648 -0.249485,-0.407269 -0.443359,-0.548828 -0.196952,-0.144637 -0.432316,-0.246217 -0.703125,-0.304687 -0.267732,-0.06155 -0.582182,-0.0918 -0.945313,-0.0918 z m -78.326172,0.125 v 5.15625 h 0.867188 v -3.66211 c 0.230803,-0.18772 0.471436,-0.340091 0.720703,-0.457031 0.249267,-0.120018 0.507659,-0.179688 0.775391,-0.179688 0.166178,10e-7 0.307716,0.0081 0.427734,0.02344 0.123095,0.01231 0.249656,0.03368 0.378906,0.06445 h 0.04687 v -0.890625 c -0.135404,-0.02154 -0.236985,-0.03486 -0.304687,-0.04102 -0.0677,-0.0092 -0.177334,-0.01367 -0.328125,-0.01367 -0.273887,0 -0.54394,0.05884 -0.808594,0.175781 -0.261577,0.113863 -0.563537,0.308974 -0.908203,0.585937 v -0.761718 z m 7.966797,0 v 3.345703 c 0,0.640094 0.151542,1.126628 0.453125,1.458984 0.301583,0.329279 0.722054,0.494141 1.263672,0.494141 0.323125,0 0.618987,-0.06245 0.886719,-0.185547 0.267732,-0.123095 0.547493,-0.298494 0.839844,-0.529297 v 0.572266 h 0.867187 v -5.15625 h -0.867187 v 3.849609 c -0.230804,0.181565 -0.480316,0.330325 -0.748047,0.447266 -0.264655,0.11694 -0.509727,0.175781 -0.734375,0.175781 -0.252345,0 -0.443845,-0.03025 -0.576172,-0.0918 -0.132327,-0.06155 -0.24113,-0.16147 -0.324219,-0.296875 -0.08001,-0.132327 -0.131631,-0.289967 -0.15625,-0.474609 -0.02462,-0.18772 -0.03711,-0.412252 -0.03711,-0.673828 v -2.935547 z m 58.642578,0 2.054688,4.90625 -0.958984,2.15039 h 0.927734 l 3.009766,-7.05664 h -0.910157 l -1.597656,3.822265 -1.582031,-3.822265 z m -16.792968,0.572265 c 0.461606,0 0.804648,0.12378 1.029296,0.373047 0.227726,0.249268 0.342626,0.601189 0.345704,1.056641 h -2.953125 c 0.03693,-0.406214 0.190957,-0.745645 0.464843,-1.019532 0.276964,-0.273886 0.648598,-0.410156 1.113282,-0.410156 z m -19.982422,0.03125 c 0.464684,0 0.826313,0.164033 1.08789,0.490235 0.261577,0.323124 0.392578,0.818537 0.392578,1.486328 10e-7,0.652403 -0.13183,1.144206 -0.396484,1.476562 -0.261577,0.329279 -0.622378,0.494141 -1.083984,0.494141 -0.467761,0 -0.834126,-0.16569 -1.095703,-0.498047 -0.261577,-0.335434 -0.390625,-0.826407 -0.390625,-1.472656 0,-0.667791 0.128219,-1.163204 0.386718,-1.486328 0.261577,-0.326202 0.628771,-0.490235 1.09961,-0.490235 z m -9.533203,0.08008 c 0.440064,0 0.766176,0.1532 0.978515,0.460938 0.212339,0.307737 0.31836,0.772901 0.31836,1.394531 0,0.640094 -0.135441,1.123017 -0.40625,1.449219 -0.270809,0.326202 -0.647712,0.488281 -1.13086,0.488281 -0.224648,0 -0.425028,-0.01859 -0.603515,-0.05859 -0.175411,-0.04001 -0.386623,-0.115777 -0.632813,-0.226562 v -2.921875 c 0.230803,-0.175411 0.472265,-0.318073 0.72461,-0.425781 0.252344,-0.107709 0.502685,-0.160157 0.751953,-0.160157 z m 59.40625,1.767578 v 1.435547 c -0.215417,0.166179 -0.450781,0.30967 -0.703125,0.429688 -0.252345,0.11694 -0.529325,0.173828 -0.833985,0.173828 -0.366208,0 -0.639871,-0.07299 -0.818359,-0.220703 -0.178488,-0.150792 -0.267578,-0.374494 -0.267578,-0.669922 0,-0.261577 0.0766,-0.465567 0.230468,-0.613281 0.153869,-0.150792 0.356202,-0.261252 0.605469,-0.332031 0.209262,-0.05847 0.492634,-0.103992 0.84961,-0.134766 0.360053,-0.03077 0.672845,-0.05297 0.9375,-0.06836 z"
       transform="translate(322.15137,259.81445)" />
    <rect
       style="fill:#d50d29;fill-opacity:1;stroke:none;stroke-width:1.06515;stroke-linecap:round;stroke-linejoin:round"
       id="rect155625"
       width="29.907898"
       height="11.782649"
       x="-395.40237"
       y="448.58191"
       transform="matrix(-0.88141242,0.47234749,0,1,0,0)" />
    <path
       id="rect155811"
       style="fill:#0c9a40;fill-opacity:1;stroke:none;stroke-width:1;stroke-linecap:round;stroke-linejoin:round"
       d="m 335.8922,283.15625 12.62109,6.76367 v 11.7832 l -23.61523,-12.65624 z"
       sodipodi:nodetypes="ccccc" />
    <path
       id="rect160831"
       style="fill:#000000;fill-opacity:1;stroke:none;stroke-width:1;stroke-linecap:round;stroke-linejoin:round"
       d="m 348.51329,259.81445 v 7.33301 l -26.36133,14.12695 v -7.333 z"
       sodipodi:nodetypes="ccccc" />
    <g
       aria-label="DAK"
       transform="matrix(1.9336694,0,0,2.5512449,-382.7393,-432.12117)"
       id="text198879"
       style="font-weight:bold;font-size:21.3333px;font-family:Tunga;-inkscape-font-specification:'Tunga Bold';baseline-shift:baseline;opacity:1;fill:#ffffff;fill-opacity:1;stroke:#ffffff;stroke-width:1.12557;stroke-linecap:round;stroke-miterlimit:4;stroke-dasharray:none;stop-color:#000000;stop-opacity:1">
      <path
         d="m 379.84028,274.87142 h 3.98958 q 3.11457,0 4.68749,1.4375 1.58333,1.43749 1.58333,4.44791 0,3.01041 -1.58333,4.52082 -1.57292,1.5 -4.68749,1.5 h -3.98958 z m 2.53125,9.77082 h 1.43749 q 2.17708,0 2.89583,-1 0.38542,-0.52084 0.58333,-1.22917 0.20834,-0.71875 0.20834,-1.65624 0,-0.91667 -0.20834,-1.59375 -0.19791,-0.67708 -0.58333,-1.17708 -0.75,-1 -2.89583,-1 h -1.43749 z"
         id="path199081"
         style="fill:#ffffff;fill-opacity:1;stroke:#ffffff;stroke-width:1.12557;stroke-miterlimit:4;stroke-dasharray:none" />
      <path
         d="m 397.95483,281.89224 -1.56249,-4.88541 -1.51042,4.88541 z m 4.19791,4.88541 h -2.62499 l -0.97917,-2.83333 h -4.23957 l -0.9375,2.83333 h -2.52083 l 4.15624,-11.90623 h 2.80208 z"
         id="path199083"
         style="fill:#ffffff;fill-opacity:1;stroke:#ffffff;stroke-width:1.12557;stroke-miterlimit:4;stroke-dasharray:none" />
      <path
         d="m 413.43398,286.77765 h -2.95833 l -3.4375,-5.49999 -1.17708,1.10416 v 4.39583 h -2.53124 v -11.90623 h 2.53124 v 5.29166 l 4.39583,-5.29166 h 2.98958 l -4.21875,5.01041 z"
         id="path199085"
         style="fill:#ffffff;fill-opacity:1;stroke:#ffffff;stroke-width:1.12557;stroke-miterlimit:4;stroke-dasharray:none" />
    </g>
    <text
       xml:space="preserve"
       style="font-style:normal;font-variant:normal;font-weight:bold;font-stretch:normal;font-size:21.3333px;line-height:normal;font-family:Tunga;-inkscape-font-specification:'Tunga Bold';font-variant-ligatures:normal;font-variant-position:normal;font-variant-caps:normal;font-variant-numeric:normal;font-variant-alternates:normal;font-variant-east-asian:normal;font-feature-settings:normal;text-indent:0;text-align:start;text-decoration-line:none;text-decoration-style:solid;text-decoration-color:#000000;letter-spacing:normal;word-spacing:normal;text-transform:none;writing-mode:lr-tb;direction:ltr;text-orientation:mixed;dominant-baseline:auto;baseline-shift:baseline;text-anchor:start;white-space:normal;shape-padding:0;shape-margin:0;inline-size:0;opacity:1;vector-effect:none;fill:#000000;fill-opacity:1;stroke:none;stroke-width:0.450227;stroke-linecap:round;stroke-linejoin:miter;stroke-miterlimit:4;stroke-dasharray:none;stroke-dashoffset:0;stroke-opacity:1;-inkscape-stroke:none;stop-color:#000000;stop-opacity:1"
       x="378.64236"
       y="286.77765"
       id="text162069"
       transform="matrix(1.9336694,0,0,2.5512449,-382.7393,-432.12117)"><tspan
         sodipodi:role="line"
         id="tspan162067"
         x="378.64236"
         y="286.77765"
         style="font-style:normal;font-variant:normal;font-weight:bold;font-stretch:normal;font-family:Tunga;-inkscape-font-specification:'Tunga Bold';stroke-width:0.450227">DAK</tspan></text>
    <path
       style="fill:none;fill-rule:evenodd;stroke:#000000;stroke-width:0.999996px;stroke-linecap:butt;stroke-linejoin:miter;stroke-opacity:1"
       d="m 323.52354,304.74825 h 93.46236"
       id="path169328" />
    <text
       xml:space="preserve"
       style="font-style:normal;font-variant:normal;font-weight:normal;font-stretch:normal;font-size:21.3333px;line-height:normal;font-family:sans-serif;font-variant-ligatures:normal;font-variant-position:normal;font-variant-caps:normal;font-variant-numeric:normal;font-variant-alternates:normal;font-variant-east-asian:normal;font-feature-settings:normal;font-variation-settings:normal;text-indent:0;text-align:center;text-decoration-line:none;text-decoration-style:solid;text-decoration-color:#000000;letter-spacing:8.95874px;word-spacing:normal;text-transform:none;writing-mode:lr-tb;direction:ltr;text-orientation:mixed;dominant-baseline:auto;baseline-shift:baseline;text-anchor:middle;white-space:normal;shape-padding:0;shape-margin:0;inline-size:0;opacity:1;vector-effect:none;fill:#000000;fill-opacity:1;stroke:none;stroke-width:2.2566;stroke-linecap:round;stroke-linejoin:miter;stroke-miterlimit:4;stroke-dasharray:none;stroke-dashoffset:0;stroke-opacity:1;-inkscape-stroke:none;stop-color:#000000;stop-opacity:1"
       x="424.51324"
       y="316.33414"
       id="text170465"
       transform="matrix(0.44314286,0,0,0.44314286,182.2778,174.93923)"><tspan
         sodipodi:role="line"
         id="tspan170463"
         x="428.99261"
         y="316.33414"
         style="text-align:center;text-anchor:middle;stroke-width:2.2566">GrupoKenya</tspan></text>
  </g>
</svg>
